<svg xmlns="http://www.w3.org/2000/svg" xmlns:xlink="http://www.w3.org/1999/xlink" width="48" height="48" viewBox="0 0 48 48">
  <defs>
    <clipPath id="clip-define_features">
      <rect width="48" height="48"/>
    </clipPath>
  </defs>
  <g id="define_features" clip-path="url(#clip-define_features)">
    <path id="Path_80" data-name="Path 80" d="M26.582,5.419c13,0,15.062,4.1,15.062,16.773S36.254,45.144,23.252,45.144,1.643,27.915,1.643,15.239,13.579,5.419,26.582,5.419Z" transform="translate(2.357 -1.144)" opacity="0.15"/>
    <path id="magnify" d="M14.143,3a11.15,11.15,0,0,1,8.469,18.394l.463.463h1.354L33,30.429,30.429,33l-8.571-8.571V23.074l-.463-.463A11.145,11.145,0,1,1,14.143,3m0,3.429a7.714,7.714,0,1,0,7.714,7.714A7.682,7.682,0,0,0,14.143,6.429Z" transform="translate(35.49 4.412) rotate(77)"/>
  </g>
</svg>
