<svg xmlns="http://www.w3.org/2000/svg" xmlns:xlink="http://www.w3.org/1999/xlink" width="48" height="48" viewBox="0 0 48 48">
  <defs>
    <clipPath id="clip-system_design">
      <rect width="48" height="48"/>
    </clipPath>
  </defs>
  <g id="system_design" clip-path="url(#clip-system_design)">
    <path id="Path_80" data-name="Path 80" d="M26.582,5.419c13,0,15.062,4.1,15.062,16.773S36.254,45.144,23.252,45.144,1.643,27.915,1.643,15.239,13.579,5.419,26.582,5.419Z" transform="translate(2.357 -1.143)" opacity="0.15"/>
    <path id="hammer-wrench" d="M16.27,17.988l7.28,7.28,2.56-2.621-7.28-7.28-2.56,2.621m4.514-6.309a3.683,3.683,0,0,1-1.383-.231L5.58,25.207l-2.56-2.56,8.991-8.979-2.148-2.16-.874.849L7.23,10.647v3.47l-.849.849L2.11,10.647,2.959,9.8h3.41L4.67,8.087l4.32-4.32a3.61,3.61,0,0,1,5.12,0L11.55,6.388l1.711,1.7-.861.861,2.172,2.16,2.208-2.281a3.647,3.647,0,0,1-.243-1.359A4.234,4.234,0,0,1,20.783,3.2a3.653,3.653,0,0,1,1.917.51l-3.24,3.24,1.82,1.82,3.24-3.24a3.619,3.619,0,0,1,.51,1.941A4.213,4.213,0,0,1,20.783,11.678Z" transform="translate(9.89 10.297)"/>
  </g>
</svg>
