<svg xmlns="http://www.w3.org/2000/svg" xmlns:xlink="http://www.w3.org/1999/xlink" width="48" height="48" viewBox="0 0 48 48">
  <defs>
    <clipPath id="clip-wireframing">
      <rect width="48" height="48"/>
    </clipPath>
  </defs>
  <g id="wireframing" clip-path="url(#clip-wireframing)">
    <path id="Path_80" data-name="Path 80" d="M26.582,5.419c13,0,15.062,4.1,15.062,16.773S36.254,45.144,23.252,45.144,1.643,27.915,1.643,15.239,13.579,5.419,26.582,5.419Z" transform="translate(49.144 2.357) rotate(90)" opacity="0.15"/>
    <path id="pencil-ruler" d="M3.211,19.328v4.241H7.452l12.509-12.52L15.72,6.808,3.211,19.328M25.39,20.583,20.583,25.39,14.7,19.509l2-2,1.131,1.131,2.794-2.8,1.606,1.606-1.651,1.606,1.2,1.131,1.606-1.583,2,1.991m-18.1-8.516L1.39,6.2,6.2,1.39l1.991,2L5.394,6.2,6.6,7.4l2.782-2.8L10.992,6.2,9.386,7.792l1.131,1.131L7.294,12.067M23.241,7.735a1.126,1.126,0,0,0,0-1.595l-2.647-2.6a1.126,1.126,0,0,0-1.595,0l-2.081,2.07L21.16,9.85Z" transform="translate(10.61 10.61)"/>
  </g>
</svg>
