<svg xmlns="http://www.w3.org/2000/svg" xmlns:xlink="http://www.w3.org/1999/xlink" width="48" height="48" viewBox="0 0 48 48">
  <defs>
    <clipPath id="clip-design">
      <rect width="48" height="48"/>
    </clipPath>
  </defs>
  <g id="design" clip-path="url(#clip-design)">
    <path id="Path_80" data-name="Path 80" d="M16.7,44.868c-13,0-15.062-4.1-15.062-16.773S7.032,5.144,20.034,5.144s21.609,17.229,21.609,29.9S29.707,44.868,16.7,44.868Z" transform="translate(2.357 -1.144)" opacity="0.15"/>
    <path id="brush" d="M15.754,13.783l-1.128,1.128a.838.838,0,0,1-1.187,0L5.894,7.367,8.209,5.052,15.754,12.6a.838.838,0,0,1,0,1.187M4.21,5.894A2.526,2.526,0,0,1,1.684,3.368,1.709,1.709,0,0,0,0,1.684,4.369,4.369,0,0,1,3.368,0,3.368,3.368,0,0,1,6.736,3.368,2.526,2.526,0,0,1,4.21,5.894Z" transform="matrix(-0.017, 1, -1, -0.017, 43.718, 24.713)"/>
    <path id="palette-outline" d="M14,26A12,12,0,1,1,14,2c6.6,0,12,4.8,12,10.8A7.2,7.2,0,0,1,18.8,20H16.64a.567.567,0,0,0-.6.6c0,.12.12.24.12.36A3.259,3.259,0,0,1,16.88,23,2.8,2.8,0,0,1,14,26M14,4.4a9.6,9.6,0,0,0,0,19.2.567.567,0,0,0,.6-.6c0-.24-.12-.36-.12-.48a2.978,2.978,0,0,1,2.28-4.92H18.8a4.8,4.8,0,0,0,4.8-4.8c0-4.68-4.32-8.4-9.6-8.4M7.4,11.6a1.8,1.8,0,1,1,0,3.6,1.8,1.8,0,1,1,0-3.6M11,6.8a1.846,1.846,0,0,1,1.8,1.8,1.8,1.8,0,0,1-3.6,0A1.846,1.846,0,0,1,11,6.8m6,0a1.846,1.846,0,0,1,1.8,1.8,1.8,1.8,0,1,1-3.6,0A1.846,1.846,0,0,1,17,6.8m3.6,4.8a1.8,1.8,0,1,1-1.8,1.8A1.846,1.846,0,0,1,20.6,11.6Z" transform="translate(10 10)"/>
  </g>
</svg>
