<svg xmlns="http://www.w3.org/2000/svg" xmlns:xlink="http://www.w3.org/1999/xlink" width="48" height="48" viewBox="0 0 48 48">
  <defs>
    <clipPath id="clip-prototyping">
      <rect width="48" height="48"/>
    </clipPath>
  </defs>
  <g id="prototyping" clip-path="url(#clip-prototyping)">
    <path id="Path_80" data-name="Path 80" d="M16.7,44.868c-13,0-15.062-4.1-15.062-16.773S7.032,5.144,20.034,5.144s21.609,17.229,21.609,29.9S29.707,44.868,16.7,44.868Z" transform="translate(2.357 -1.144)" opacity="0.15"/>
    <path id="cellphone-cog" d="M10.8,14.939a5.558,5.558,0,0,0,.044-.606,5.558,5.558,0,0,0-.044-.606l1.2-.982c.111-.085.111-.23.067-.388l-1.144-2.1a.288.288,0,0,0-.344-.133l-1.422.606a4.508,4.508,0,0,0-.967-.594L7.966,8.527A.259.259,0,0,0,7.7,8.272H5.444a.3.3,0,0,0-.311.255l-.244,1.6a6.41,6.41,0,0,0-.944.57l-1.422-.606a.272.272,0,0,0-.344.158l-1.144,2.1a.328.328,0,0,0,.078.4l1.2.982a5.708,5.708,0,0,0-.033.606,5.558,5.558,0,0,0,.044.606l-1.211.994a.349.349,0,0,0-.067.388l1.144,2.1c.067.158.222.158.344.158l1.422-.606a5.626,5.626,0,0,0,.967.57l.222,1.6a.283.283,0,0,0,.3.255H7.711a.277.277,0,0,0,.278-.255l.233-1.6a5.981,5.981,0,0,0,.956-.57l1.422.606a.272.272,0,0,0,.344-.158l1.167-2.1a.408.408,0,0,0-.089-.388L10.8,14.939M6.555,16.454a2.125,2.125,0,0,1,0-4.242,2.125,2.125,0,0,1,0,4.242M18.777,1H7.666A2.33,2.33,0,0,0,5.444,3.424V7.06H7.666V4.636H18.777V24.029H7.666V21.605H5.444v3.636a2.33,2.33,0,0,0,2.222,2.424H18.777A2.33,2.33,0,0,0,21,25.241V3.424A2.33,2.33,0,0,0,18.777,1Z" transform="translate(13.001 10)"/>
  </g>
</svg>
